<?xml version="1.0" encoding="utf-8"?>
<!-- Generator: Adobe Illustrator 24.0.1, SVG Export Plug-In . SVG Version: 6.00 Build 0)  -->
<svg version="1.1" id="Layer_1" xmlns="http://www.w3.org/2000/svg" xmlns:xlink="http://www.w3.org/1999/xlink" x="0px" y="0px"
	 viewBox="0 0 240 240" style="enable-background:new 0 0 240 240;" xml:space="preserve">
<style type="text/css">
	.st0{fill-rule:evenodd;clip-rule:evenodd;fill:#FF4720;stroke:#FF4720;stroke-width:2;stroke-miterlimit:10;}
</style>
<path class="st0" d="M220.9,63.1c0.1,0.3,0.1,0.6,0.1,0.9v44.6c0,1.2-0.6,2.2-1.6,2.8L181.9,133v42.8c0,1.2-0.6,2.2-1.6,2.8
	l-78.2,45c-0.2,0.1-0.4,0.2-0.6,0.2c-0.1,0-0.1,0.1-0.2,0.1c-0.5,0.1-1.1,0.1-1.7,0c-0.1,0-0.2-0.1-0.3-0.1
	c-0.2-0.1-0.4-0.1-0.5-0.2l-78.2-45c-1-0.6-1.6-1.7-1.6-2.8v-134c0-0.3,0-0.6,0.1-0.9c0-0.1,0.1-0.2,0.1-0.3
	c0.1-0.2,0.1-0.3,0.2-0.5c0.1-0.1,0.2-0.2,0.2-0.3c0.1-0.1,0.2-0.3,0.3-0.4c0.1-0.1,0.2-0.2,0.3-0.2c0.1-0.1,0.2-0.2,0.4-0.3l0,0
	l39.1-22.5c1-0.6,2.2-0.6,3.3,0L102.1,39l0,0c0.1,0.1,0.2,0.2,0.4,0.3c0.1,0.1,0.2,0.2,0.3,0.2c0.1,0.1,0.2,0.3,0.3,0.4
	c0.1,0.1,0.2,0.2,0.2,0.3c0.1,0.2,0.1,0.3,0.2,0.5c0,0.1,0.1,0.2,0.1,0.3c0.1,0.3,0.1,0.6,0.1,0.9v83.6l32.6-18.8V63.9
	c0-0.3,0-0.6,0.1-0.8c0-0.1,0.1-0.2,0.1-0.3c0.1-0.2,0.1-0.3,0.2-0.5c0.1-0.1,0.2-0.2,0.2-0.3c0.1-0.1,0.2-0.3,0.3-0.4
	c0.1-0.1,0.2-0.2,0.3-0.2c0.1-0.1,0.2-0.2,0.4-0.3l0,0L177,38.6c1-0.6,2.2-0.6,3.3,0l39.1,22.5c0.1,0.1,0.2,0.2,0.4,0.3
	c0.1,0.1,0.2,0.2,0.3,0.2c0.1,0.1,0.2,0.3,0.3,0.4c0.1,0.1,0.2,0.2,0.2,0.3c0.1,0.2,0.1,0.3,0.2,0.5C220.8,62.9,220.9,63,220.9,63.1
	z M214.5,106.7V69.6l-13.7,7.9l-18.9,10.9v37.1L214.5,106.7L214.5,106.7z M175.4,173.8v-37.1l-18.6,10.6l-53.1,30.3v37.5
	C103.7,215.1,175.4,173.8,175.4,173.8z M25.5,47.4v126.4l71.7,41.3v-37.5l-37.4-21.2l0,0l0,0c-0.1-0.1-0.2-0.2-0.3-0.3
	s-0.2-0.1-0.3-0.2l0,0c-0.1-0.1-0.2-0.2-0.3-0.3s-0.2-0.2-0.2-0.3l0,0c-0.1-0.1-0.1-0.3-0.2-0.4c-0.1-0.1-0.1-0.2-0.2-0.4l0,0
	c0-0.2,0-0.3-0.1-0.5c0-0.1,0-0.2,0-0.4l0,0V66.2l-19-10.9L25.5,47.4L25.5,47.4z M61.4,23.1L28.8,41.8l32.6,18.8L94,41.8L61.4,23.1
	L61.4,23.1z M78.3,140.1l18.9-10.9V47.4l-13.7,7.9L64.6,66.2V148L78.3,140.1z M178.6,45.2L146,64l32.6,18.8L211.2,64
	C211.2,63.9,178.6,45.2,178.6,45.2z M175.4,88.3l-18.9-10.9l-13.7-7.9v37.1l18.9,10.9l13.7,7.9V88.3z M100.4,172l47.8-27.3
	l23.9-13.6l-32.5-18.7L102.1,134l-34.2,19.7C67.9,153.6,100.4,172,100.4,172z"/>
</svg>
